<svg width="1920" height="1080" viewBox="0 0 1920 1080" fill="none" xmlns="http://www.w3.org/2000/svg">
<rect x="0.5" y="0.5" width="1919" height="1079" fill="white"/>
<rect x="0.5" y="0.5" width="1919" height="1079" stroke="#FF5C00"/>
<path d="M432.829 622.612C438.135 688.119 389.331 745.524 323.824 750.829C258.316 756.134 200.911 707.331 195.606 641.824C190.301 576.316 239.104 518.911 304.612 513.606C370.119 508.301 427.524 557.104 432.829 622.612Z" fill="#FF5C00"/>
<circle cx="1000" cy="929" r="114" stroke="#FF5C00" stroke-width="10"/>
<circle cx="1367" cy="186" r="15" fill="#FF5C00"/>
<circle cx="171" cy="201" r="15" fill="#FF5C00"/>
<circle cx="988" cy="431" r="15" fill="#FF5C00"/>
<circle cx="329" cy="364" r="15" fill="#FF5C00"/>
<circle cx="1724.5" cy="809.5" r="24.5" fill="#FF5C00"/>
<circle cx="464.5" cy="185.5" r="36.5" stroke="#FF5C00" stroke-width="10"/>
<circle cx="876.5" cy="581.5" r="36.5" stroke="#FF5C00" stroke-width="10"/>
<circle cx="1650.5" cy="718.5" r="36.5" stroke="#FF5C00" stroke-width="10"/>
<circle cx="552.5" cy="515.5" r="36.5" stroke="#FF5C00" stroke-width="10"/>
<circle cx="1024.5" cy="222.5" r="94.5" fill="#FF5C00"/>
<circle cx="1572.22" cy="307.218" r="119" transform="rotate(-4.63011 1572.22 307.218)" fill="#FF5C00"/>
<circle cx="1206" cy="349" r="114" stroke="#FF5C00" stroke-width="10"/>
<circle cx="629" cy="267" r="72" stroke="#FF5C00" stroke-width="10"/>
<circle cx="460" cy="881" r="57" fill="#FF5C00"/>
<circle cx="460" cy="881" r="57" fill="#FF5C00"/>
<circle cx="725" cy="734" r="57" fill="#FF5C00"/>
<path d="M1467 637.5C1467 723.933 1398.05 794 1313 794C1227.95 794 1159 723.933 1159 637.5C1159 551.067 1227.95 481 1313 481C1398.05 481 1467 551.067 1467 637.5Z" fill="#FF5C00"/>
</svg>