<svg width="1593" height="920" viewBox="0 0 1593 920" fill="none" xmlns="http://www.w3.org/2000/svg">
<path d="M276.829 494.612C282.135 560.119 233.331 617.524 167.824 622.829C102.316 628.134 44.9113 579.331 39.606 513.824C34.3008 448.316 83.1042 390.911 148.612 385.606C214.119 380.301 271.524 429.104 276.829 494.612Z" fill="#FF5C00"/>
<circle cx="844" cy="801" r="114" stroke="#FF5C00" stroke-width="10"/>
<circle cx="1211" cy="58" r="15" fill="#FF5C00"/>
<circle cx="15" cy="73" r="15" fill="#FF5C00"/>
<circle cx="832" cy="303" r="15" fill="#FF5C00"/>
<circle cx="173" cy="236" r="15" fill="#FF5C00"/>
<circle cx="1568.5" cy="681.5" r="24.5" fill="#FF5C00"/>
<circle cx="308.5" cy="57.5" r="36.5" stroke="#FF5C00" stroke-width="10"/>
<circle cx="720.5" cy="453.5" r="36.5" stroke="#FF5C00" stroke-width="10"/>
<circle cx="1494.5" cy="590.5" r="36.5" stroke="#FF5C00" stroke-width="10"/>
<circle cx="396.5" cy="387.5" r="36.5" stroke="#FF5C00" stroke-width="10"/>
<circle cx="868.5" cy="94.5" r="94.5" fill="#FF5C00"/>
<circle cx="1416.22" cy="179.218" r="119" transform="rotate(-4.63011 1416.22 179.218)" fill="#FF5C00"/>
<circle cx="1050" cy="221" r="114" stroke="#FF5C00" stroke-width="10"/>
<circle cx="473" cy="139" r="72" stroke="#FF5C00" stroke-width="10"/>
<circle cx="304" cy="753" r="57" fill="#FF5C00"/>
<circle cx="304" cy="753" r="57" fill="#FF5C00"/>
<circle cx="569" cy="606" r="57" fill="#FF5C00"/>
<path d="M1311 509.5C1311 595.933 1242.05 666 1157 666C1071.95 666 1003 595.933 1003 509.5C1003 423.067 1071.95 353 1157 353C1242.05 353 1311 423.067 1311 509.5Z" fill="#FF5C00"/>
</svg>
