<svg width="1920" height="1080" viewBox="0 0 1920 1080" fill="none" xmlns="http://www.w3.org/2000/svg">
<g clip-path="url(#clip0_234_1641)">
<path d="M1803.35 817.048V864.682H1753.63V908.787L1781.29 934.898L1877.59 933.839V841.394L1848.18 817.048H1803.35Z" fill="#54F0B2" stroke="#0E1E30" stroke-width="4"/>
<path d="M1832.77 843.158V890.792H1783.04V934.898H1877.59V843.158H1832.77Z" fill="#FF5C00" stroke="#0E1E30" stroke-width="4"/>
<path d="M1834.17 842.805L1804.4 817.401" stroke="#0E1E30" stroke-width="4"/>
<path d="M1849.23 842.805L1819.46 816.342" stroke="#0E1E30" stroke-width="4"/>
<path d="M1865.34 843.864L1834.52 815.989" stroke="#0E1E30" stroke-width="4"/>
<path d="M1833.47 857.272L1802.65 830.456" stroke="#0E1E30" stroke-width="4"/>
<path d="M1783.04 904.553L1752.23 877.737" stroke="#0E1E30" stroke-width="4"/>
<path d="M1833.47 873.503L1802.65 846.687" stroke="#0E1E30" stroke-width="4"/>
<path d="M1783.04 920.784L1752.23 893.968" stroke="#0E1E30" stroke-width="4"/>
<path d="M1833.47 889.734L1802.65 862.917" stroke="#0E1E30" stroke-width="4"/>
<path d="M1818.06 891.145L1787.25 864.329" stroke="#0E1E30" stroke-width="4"/>
<path d="M1802.65 891.145L1771.84 864.329" stroke="#0E1E30" stroke-width="4"/>
<path d="M1785.14 891.145L1754.33 864.329" stroke="#0E1E30" stroke-width="4"/>
<g opacity="0.1">
<path d="M1736.76 764.992L1763.64 738.103" stroke="#0E1E30" stroke-width="3.82276" stroke-miterlimit="10"/>
<path d="M1736.76 738.103L1763.64 764.992" stroke="#0E1E30" stroke-width="3.82276" stroke-miterlimit="10"/>
<path d="M1499 764.724L1525.88 737.835" stroke="#0E1E30" stroke-width="3.82276" stroke-miterlimit="10"/>
<path d="M1499 737.835L1525.88 764.724" stroke="#0E1E30" stroke-width="3.82276" stroke-miterlimit="10"/>
<path d="M1736.76 700.281L1763.64 673.392" stroke="#0E1E30" stroke-width="3.82276" stroke-miterlimit="10"/>
<path d="M1736.76 673.392L1763.64 700.281" stroke="#0E1E30" stroke-width="3.82276" stroke-miterlimit="10"/>
<path d="M1499 700.013L1525.88 673.124" stroke="#0E1E30" stroke-width="3.82276" stroke-miterlimit="10"/>
<path d="M1499 673.124L1525.88 700.013" stroke="#0E1E30" stroke-width="3.82276" stroke-miterlimit="10"/>
<path d="M1736.76 635.577L1763.64 608.688" stroke="#0E1E30" stroke-width="3.82276" stroke-miterlimit="10"/>
<path d="M1736.76 608.688L1763.64 635.577" stroke="#0E1E30" stroke-width="3.82276" stroke-miterlimit="10"/>
<path d="M1499 635.309L1525.88 608.42" stroke="#0E1E30" stroke-width="3.82276" stroke-miterlimit="10"/>
<path d="M1499 608.42L1525.88 635.309" stroke="#0E1E30" stroke-width="3.82276" stroke-miterlimit="10"/>
<path d="M1736.76 570.903L1763.64 543.979" stroke="#0E1E30" stroke-width="3.82276" stroke-miterlimit="10"/>
<path d="M1736.76 543.979L1763.64 570.903" stroke="#0E1E30" stroke-width="3.82276" stroke-miterlimit="10"/>
<path d="M1499 570.635L1525.88 543.711" stroke="#0E1E30" stroke-width="3.82276" stroke-miterlimit="10"/>
<path d="M1499 543.711L1525.88 570.635" stroke="#0E1E30" stroke-width="3.82276" stroke-miterlimit="10"/>
<path d="M1736.76 506.192L1763.64 479.268" stroke="#0E1E30" stroke-width="3.82276" stroke-miterlimit="10"/>
<path d="M1736.76 479.268L1763.64 506.192" stroke="#0E1E30" stroke-width="3.82276" stroke-miterlimit="10"/>
<path d="M1499 505.924L1525.88 479" stroke="#0E1E30" stroke-width="3.82276" stroke-miterlimit="10"/>
<path d="M1499 479L1525.88 505.924" stroke="#0E1E30" stroke-width="3.82276" stroke-miterlimit="10"/>
<path d="M1793.11 764.993L1819.99 738.104" stroke="#0E1E30" stroke-width="3.82276" stroke-miterlimit="10"/>
<path d="M1793.11 738.104L1819.99 764.993" stroke="#0E1E30" stroke-width="3.82276" stroke-miterlimit="10"/>
<path d="M1555.35 764.725L1582.23 737.836" stroke="#0E1E30" stroke-width="3.82276" stroke-miterlimit="10"/>
<path d="M1555.35 737.836L1582.23 764.725" stroke="#0E1E30" stroke-width="3.82276" stroke-miterlimit="10"/>
<path d="M1793.11 700.284L1819.99 673.395" stroke="#0E1E30" stroke-width="3.82276" stroke-miterlimit="10"/>
<path d="M1793.11 673.395L1819.99 700.284" stroke="#0E1E30" stroke-width="3.82276" stroke-miterlimit="10"/>
<path d="M1555.35 700.016L1582.23 673.127" stroke="#0E1E30" stroke-width="3.82276" stroke-miterlimit="10"/>
<path d="M1555.35 673.127L1582.23 700.016" stroke="#0E1E30" stroke-width="3.82276" stroke-miterlimit="10"/>
<path d="M1793.11 635.575L1819.99 608.686" stroke="#0E1E30" stroke-width="3.82276" stroke-miterlimit="10"/>
<path d="M1793.11 608.686L1819.99 635.575" stroke="#0E1E30" stroke-width="3.82276" stroke-miterlimit="10"/>
<path d="M1555.35 635.307L1582.23 608.418" stroke="#0E1E30" stroke-width="3.82276" stroke-miterlimit="10"/>
<path d="M1555.35 608.418L1582.23 635.307" stroke="#0E1E30" stroke-width="3.82276" stroke-miterlimit="10"/>
<path d="M1793.11 570.901L1819.99 543.977" stroke="#0E1E30" stroke-width="3.82276" stroke-miterlimit="10"/>
<path d="M1793.11 543.977L1819.99 570.901" stroke="#0E1E30" stroke-width="3.82276" stroke-miterlimit="10"/>
<path d="M1555.35 570.633L1582.23 543.709" stroke="#0E1E30" stroke-width="3.82276" stroke-miterlimit="10"/>
<path d="M1555.35 543.709L1582.23 570.633" stroke="#0E1E30" stroke-width="3.82276" stroke-miterlimit="10"/>
<path d="M1793.11 506.196L1819.99 479.272" stroke="#0E1E30" stroke-width="3.82276" stroke-miterlimit="10"/>
<path d="M1793.11 479.272L1819.99 506.196" stroke="#0E1E30" stroke-width="3.82276" stroke-miterlimit="10"/>
<path d="M1555.35 505.928L1582.23 479.004" stroke="#0E1E30" stroke-width="3.82276" stroke-miterlimit="10"/>
<path d="M1555.35 479.004L1582.23 505.928" stroke="#0E1E30" stroke-width="3.82276" stroke-miterlimit="10"/>
<path d="M1849.46 764.992L1876.37 738.103" stroke="#0E1E30" stroke-width="3.82276" stroke-miterlimit="10"/>
<path d="M1849.46 738.103L1876.37 764.992" stroke="#0E1E30" stroke-width="3.82276" stroke-miterlimit="10"/>
<path d="M1611.7 764.724L1638.61 737.835" stroke="#0E1E30" stroke-width="3.82276" stroke-miterlimit="10"/>
<path d="M1611.7 737.835L1638.61 764.724" stroke="#0E1E30" stroke-width="3.82276" stroke-miterlimit="10"/>
<path d="M1849.46 700.282L1876.37 673.393" stroke="#0E1E30" stroke-width="3.82276" stroke-miterlimit="10"/>
<path d="M1849.46 673.393L1876.37 700.282" stroke="#0E1E30" stroke-width="3.82276" stroke-miterlimit="10"/>
<path d="M1611.7 700.014L1638.61 673.125" stroke="#0E1E30" stroke-width="3.82276" stroke-miterlimit="10"/>
<path d="M1611.7 673.125L1638.61 700.014" stroke="#0E1E30" stroke-width="3.82276" stroke-miterlimit="10"/>
<path d="M1849.46 635.577L1876.37 608.688" stroke="#0E1E30" stroke-width="3.82276" stroke-miterlimit="10"/>
<path d="M1849.46 608.688L1876.37 635.577" stroke="#0E1E30" stroke-width="3.82276" stroke-miterlimit="10"/>
<path d="M1611.7 635.309L1638.61 608.42" stroke="#0E1E30" stroke-width="3.82276" stroke-miterlimit="10"/>
<path d="M1611.7 608.42L1638.61 635.309" stroke="#0E1E30" stroke-width="3.82276" stroke-miterlimit="10"/>
<path d="M1849.46 570.903L1876.37 543.979" stroke="#0E1E30" stroke-width="3.82276" stroke-miterlimit="10"/>
<path d="M1849.46 543.979L1876.37 570.903" stroke="#0E1E30" stroke-width="3.82276" stroke-miterlimit="10"/>
<path d="M1611.7 570.635L1638.61 543.711" stroke="#0E1E30" stroke-width="3.82276" stroke-miterlimit="10"/>
<path d="M1611.7 543.711L1638.61 570.635" stroke="#0E1E30" stroke-width="3.82276" stroke-miterlimit="10"/>
<path d="M1849.46 506.192L1876.37 479.268" stroke="#0E1E30" stroke-width="3.82276" stroke-miterlimit="10"/>
<path d="M1849.46 479.268L1876.37 506.192" stroke="#0E1E30" stroke-width="3.82276" stroke-miterlimit="10"/>
<path d="M1611.7 505.924L1638.62 479" stroke="#0E1E30" stroke-width="3.82276" stroke-miterlimit="10"/>
<path d="M1611.7 479L1638.62 505.924" stroke="#0E1E30" stroke-width="3.82276" stroke-miterlimit="10"/>
<path d="M1905.84 764.993L1932.72 738.104" stroke="#0E1E30" stroke-width="3.82276" stroke-miterlimit="10"/>
<path d="M1905.84 738.104L1932.72 764.993" stroke="#0E1E30" stroke-width="3.82276" stroke-miterlimit="10"/>
<path d="M1668.08 764.725L1694.96 737.836" stroke="#0E1E30" stroke-width="3.82276" stroke-miterlimit="10"/>
<path d="M1668.08 737.836L1694.96 764.725" stroke="#0E1E30" stroke-width="3.82276" stroke-miterlimit="10"/>
<path d="M1905.84 700.284L1932.72 673.395" stroke="#0E1E30" stroke-width="3.82276" stroke-miterlimit="10"/>
<path d="M1905.84 673.395L1932.72 700.284" stroke="#0E1E30" stroke-width="3.82276" stroke-miterlimit="10"/>
<path d="M1668.08 700.016L1694.96 673.127" stroke="#0E1E30" stroke-width="3.82276" stroke-miterlimit="10"/>
<path d="M1668.08 673.127L1694.96 700.016" stroke="#0E1E30" stroke-width="3.82276" stroke-miterlimit="10"/>
<path d="M1905.84 635.575L1932.72 608.686" stroke="#0E1E30" stroke-width="3.82276" stroke-miterlimit="10"/>
<path d="M1905.84 608.686L1932.72 635.575" stroke="#0E1E30" stroke-width="3.82276" stroke-miterlimit="10"/>
<path d="M1668.08 635.307L1694.96 608.418" stroke="#0E1E30" stroke-width="3.82276" stroke-miterlimit="10"/>
<path d="M1668.08 608.418L1694.96 635.307" stroke="#0E1E30" stroke-width="3.82276" stroke-miterlimit="10"/>
<path d="M1905.84 570.901L1932.72 543.977" stroke="#0E1E30" stroke-width="3.82276" stroke-miterlimit="10"/>
<path d="M1905.84 543.977L1932.72 570.901" stroke="#0E1E30" stroke-width="3.82276" stroke-miterlimit="10"/>
<path d="M1668.08 570.633L1694.96 543.709" stroke="#0E1E30" stroke-width="3.82276" stroke-miterlimit="10"/>
<path d="M1668.08 543.709L1694.96 570.633" stroke="#0E1E30" stroke-width="3.82276" stroke-miterlimit="10"/>
<path d="M1905.84 506.196L1932.72 479.272" stroke="#0E1E30" stroke-width="3.82276" stroke-miterlimit="10"/>
<path d="M1905.84 479.272L1932.72 506.196" stroke="#0E1E30" stroke-width="3.82276" stroke-miterlimit="10"/>
<path d="M1668.08 505.928L1694.96 479.004" stroke="#0E1E30" stroke-width="3.82276" stroke-miterlimit="10"/>
<path d="M1668.08 479.004L1694.96 505.928" stroke="#0E1E30" stroke-width="3.82276" stroke-miterlimit="10"/>
</g>
<rect x="1735.86" y="422.922" width="194.853" height="29.6242" fill="#FF5C00" stroke="#0E1E30" stroke-width="4"/>
<rect x="1735.86" y="422.922" width="194.853" height="29.6242" fill="#FF5C00" stroke="#0E1E30" stroke-width="4"/>
<rect x="1870.2" y="467.526" width="60.5088" height="29.6242" fill="#FF5C00" stroke="#0E1E30" stroke-width="4"/>
<rect x="1775.51" y="376.946" width="123.242" height="29.6242" fill="#54F0B2" stroke="#0E1E30" stroke-width="4"/>
<path d="M1950 507.908H1835.95" stroke="#0E1E30" stroke-width="6"/>
<g opacity="0.4">
<path d="M982.13 770.842L849.385 649.772" stroke="white" stroke-width="3.49487" stroke-miterlimit="10"/>
<path d="M936.416 770.843L803.711 649.772" stroke="white" stroke-width="3.49487" stroke-miterlimit="10"/>
<path d="M890.74 770.843L758.035 649.772" stroke="white" stroke-width="3.49487" stroke-miterlimit="10"/>
<path d="M845.026 770.843L712.321 649.772" stroke="white" stroke-width="3.49487" stroke-miterlimit="10"/>
<path d="M799.351 770.843L666.646 649.772" stroke="white" stroke-width="3.49487" stroke-miterlimit="10"/>
<path d="M753.676 770.843L620.932 649.772" stroke="white" stroke-width="3.49487" stroke-miterlimit="10"/>
<path d="M707.962 770.843L575.257 649.772" stroke="white" stroke-width="3.49487" stroke-miterlimit="10"/>
<path d="M662.287 770.843L529.582 649.772" stroke="white" stroke-width="3.49487" stroke-miterlimit="10"/>
<path d="M616.611 770.843L483.867 649.772" stroke="white" stroke-width="3.49487" stroke-miterlimit="10"/>
<path d="M570.897 770.843L438.192 649.772" stroke="white" stroke-width="3.49487" stroke-miterlimit="10"/>
<path d="M525.222 770.843L392.517 649.772" stroke="white" stroke-width="3.49487" stroke-miterlimit="10"/>
<path d="M479.547 770.843L346.803 649.772" stroke="white" stroke-width="3.49487" stroke-miterlimit="10"/>
<path d="M433.833 770.843L301.128 649.772" stroke="white" stroke-width="3.49487" stroke-miterlimit="10"/>
<path d="M388.158 770.843L255.413 649.772" stroke="white" stroke-width="3.49487" stroke-miterlimit="10"/>
<path d="M342.444 770.843L209.739 649.772" stroke="white" stroke-width="3.49487" stroke-miterlimit="10"/>
</g>
<path d="M197.593 891.415L87.7732 790.286C87.3386 789.851 86.6558 789.789 86.097 790.037C85.5383 790.286 85.1658 790.846 85.1658 791.468L85.1658 838.425L32.8325 790.286C32.3979 789.851 31.715 789.789 31.1563 790.037C30.5976 790.286 30.2251 790.846 30.2251 791.468L30.2251 838.425L-22.0462 790.286C-22.4807 789.851 -23.1636 789.789 -23.7223 790.037C-24.2811 790.286 -24.6535 790.846 -24.6535 791.468L-24.6535 838.425L-76.9869 790.286C-77.4215 789.851 -78.1043 789.789 -78.6631 790.038C-79.2218 790.286 -79.5942 790.846 -79.5943 791.468L-79.5943 993.725C-79.5943 994.347 -79.2218 994.906 -78.6631 995.155C-78.4769 995.217 -78.2285 995.28 -78.0423 995.28C-77.6698 995.28 -77.2973 995.155 -76.9869 994.844L-24.6536 946.706L-24.6536 993.725C-24.6536 994.347 -24.2811 994.906 -23.7224 995.155C-23.5361 995.217 -23.2878 995.28 -23.1016 995.28C-22.7291 995.28 -22.3566 995.155 -22.0462 994.844L30.2871 946.706L30.2871 993.725C30.2871 994.347 30.6596 994.906 31.2183 995.155C31.4046 995.217 31.6529 995.28 31.8391 995.28C32.2116 995.28 32.5841 995.155 32.8945 994.844L85.2279 946.706L85.2279 993.725C85.2279 994.347 85.6003 994.906 86.159 995.155C86.3453 995.217 86.5936 995.28 86.7798 995.28C87.1523 995.28 87.5248 995.155 87.8352 994.844L197.655 893.716C197.965 893.405 198.151 893.032 198.151 892.596C198.151 892.161 197.965 891.663 197.593 891.415ZM33.3912 794.951L85.2279 842.654L85.2279 888.989L33.3912 841.286L33.3912 794.951ZM88.2698 845.515L139.362 892.534L88.2698 939.553L88.2698 845.515ZM33.3912 845.515L84.4829 892.534L33.3911 939.553L33.3912 845.515ZM-21.5495 794.951L30.2872 842.654L30.2872 888.989L-21.5495 841.286L-21.5495 794.951ZM29.5422 892.534L-21.5496 939.553L-21.5496 845.515L29.5422 892.534ZM-76.4282 990.117L-76.4282 794.951L-24.5915 842.654L-24.5915 942.414L-76.4282 990.117ZM-21.5496 990.117L-21.5496 943.782L30.2872 896.079L30.2871 942.414L-21.5496 990.117ZM33.3911 990.117L33.3911 943.782L85.2279 896.079L85.2279 942.414L33.3911 990.117ZM88.2698 990.117L88.2698 943.782L142.714 893.654C143.024 893.343 143.211 892.969 143.211 892.534C143.211 892.099 143.024 891.663 142.714 891.415L88.2698 841.286L88.2698 794.951L194.302 892.534L88.2698 990.117Z" fill="#0E1E30"/>
<path d="M13.7643 633.969L-29.4281 618.538L-29.4281 600.412L29.2623 625.075L29.2623 638.079L13.7643 633.969ZM-29.4281 646.907L13.8317 631.139L29.2623 627.433L29.2623 640.37L-29.4281 665.033L-29.4281 646.907ZM103.451 608.633L103.451 623.996L43.0084 623.996L43.0084 608.633L103.451 608.633ZM103.451 637.742L103.451 653.106L43.0084 653.106L43.0084 637.742L103.451 637.742Z" fill="#F9DC5C"/>
<path d="M1796.75 489.635L1800.53 500.147C1796.44 501.629 1793.65 504.257 1792.17 508.03C1790.69 511.759 1789.95 516.071 1789.95 520.968L1789.95 534.714C1789.95 539.251 1788.94 543.361 1786.91 547.045C1784.94 550.729 1781.79 553.671 1777.48 555.872C1773.17 558.028 1767.53 559.106 1760.57 559.107L1760.57 548.864C1764.83 548.864 1767.89 547.584 1769.73 545.023C1771.62 542.463 1772.56 539.026 1772.56 534.714L1772.56 520.968C1772.56 516.251 1773.28 511.849 1774.72 507.761C1776.2 503.628 1778.69 500.012 1782.2 496.912C1785.75 493.768 1790.6 491.342 1796.75 489.635ZM1800.53 611.059L1796.75 621.638C1790.6 619.886 1785.75 617.438 1782.2 614.293C1778.69 611.193 1776.2 607.577 1774.72 603.444C1773.28 599.356 1772.56 594.954 1772.56 590.237L1772.56 576.491C1772.56 573.616 1772.13 571.123 1771.28 569.012C1770.47 566.9 1769.19 565.283 1767.44 564.16C1765.69 562.992 1763.4 562.408 1760.57 562.408L1760.57 552.099C1767.53 552.099 1773.17 553.199 1777.48 555.4C1781.79 557.557 1784.94 560.477 1786.91 564.16C1788.94 567.844 1789.95 571.954 1789.95 576.491L1789.95 590.237C1789.95 593.517 1790.26 596.549 1790.89 599.334C1791.56 602.119 1792.64 604.523 1794.12 606.544C1795.65 608.565 1797.79 610.07 1800.53 611.059ZM1839.54 500.147L1843.31 489.635C1849.51 491.342 1854.36 493.768 1857.87 496.912C1861.37 500.012 1863.84 503.628 1865.28 507.761C1866.76 511.849 1867.5 516.251 1867.5 520.968L1867.5 534.714C1867.5 537.589 1867.91 540.082 1868.72 542.193C1869.53 544.305 1870.81 545.944 1872.56 547.112C1874.35 548.28 1876.67 548.864 1879.5 548.864L1879.5 558.837C1872.54 558.837 1866.9 557.781 1862.58 555.67C1858.27 553.559 1855.11 550.684 1853.08 547.045C1851.06 543.361 1850.05 539.251 1850.05 534.714L1850.05 520.968C1850.05 517.689 1849.74 514.656 1849.11 511.871C1848.52 509.086 1847.47 506.683 1845.94 504.661C1844.41 502.64 1842.28 501.135 1839.54 500.147ZM1843.31 621.638L1839.54 611.059C1842.28 610.07 1844.41 608.565 1845.94 606.544C1847.47 604.522 1848.52 602.119 1849.11 599.334C1849.74 596.549 1850.05 593.517 1850.05 590.237L1850.05 576.491C1850.05 571.954 1851.06 567.866 1853.08 564.228C1855.11 560.589 1858.27 557.714 1862.58 555.603C1866.9 553.446 1872.54 552.368 1879.5 552.368L1879.5 562.408C1875.28 562.408 1872.22 563.689 1870.33 566.249C1868.45 568.81 1867.5 572.224 1867.5 576.491L1867.5 590.237C1867.5 594.954 1866.76 599.356 1865.28 603.444C1863.84 607.577 1861.37 611.193 1857.87 614.293C1854.36 617.438 1849.51 619.886 1843.31 621.638Z" fill="#0E1E30"/>
<path d="M111.24 706.944L154.096 722.442L154.096 740.703L95.8771 716.041L95.8771 703.103L111.24 706.944ZM154.096 694.276L111.173 710.044L95.8771 713.683L95.8771 700.745L154.096 676.083L154.096 694.276ZM212.045 652.229L176.063 758.762L161.643 758.762L197.625 652.229L212.045 652.229ZM265.008 709.64L221.816 694.209L221.816 676.083L280.506 700.745L280.506 713.75L265.008 709.64ZM221.816 722.577L265.075 706.81L280.506 703.103L280.506 716.041L221.816 740.703L221.816 722.577Z" fill="#FF5C00"/>
</g>
<defs>
<clipPath id="clip0_234_1641">
<rect width="1920" height="1080" fill="white"/>
</clipPath>
</defs>
</svg>
