<svg width="1080" height="1920" viewBox="0 0 1080 1920" fill="none" xmlns="http://www.w3.org/2000/svg">
<g clip-path="url(#clip0_234_1640)">
<path d="M242.211 1716.3L199.019 1700.87L199.019 1682.74L257.709 1707.41L257.709 1720.41L242.211 1716.3ZM199.019 1729.24L242.278 1713.47L257.709 1709.76L257.709 1722.7L199.019 1747.36L199.019 1729.24ZM331.897 1690.96L331.897 1706.33L271.455 1706.33L271.455 1690.96L331.897 1690.96ZM331.897 1720.07L331.897 1735.44L271.455 1735.44L271.455 1720.07L331.897 1720.07Z" fill="#F9DC5C"/>
<path d="M93.002 1632.61L135.857 1648.1L135.857 1666.36L77.6387 1641.7L77.6387 1628.76L93.002 1632.61ZM135.857 1619.94L92.9346 1635.71L77.6387 1639.34L77.6387 1626.41L135.857 1601.74L135.857 1619.94ZM193.807 1577.89L157.824 1684.42L143.404 1684.42L179.387 1577.89L193.807 1577.89ZM246.77 1635.3L203.577 1619.87L203.577 1601.74L262.268 1626.41L262.268 1639.41L246.77 1635.3ZM203.577 1648.24L246.837 1632.47L262.268 1628.76L262.268 1641.7L203.577 1666.36L203.577 1648.24Z" fill="#FF5C00"/>
<path d="M201.483 1514.92L99.8663 1421.36C99.4642 1420.96 98.8324 1420.9 98.3154 1421.13C97.7984 1421.36 97.4537 1421.88 97.4537 1422.46L97.4537 1465.9L49.0293 1421.36C48.6272 1420.96 47.9953 1420.9 47.4783 1421.13C46.9613 1421.36 46.6167 1421.88 46.6167 1422.46L46.6167 1465.9L-1.75034 1421.36C-2.15244 1420.96 -2.78431 1420.9 -3.3013 1421.13C-3.81829 1421.36 -4.16294 1421.88 -4.16294 1422.46L-4.16294 1465.9L-52.5874 1421.36C-52.9895 1420.96 -53.6214 1420.9 -54.1384 1421.13C-54.6553 1421.36 -55 1421.88 -55 1422.46L-55 1609.56C-55 1610.14 -54.6553 1610.65 -54.1384 1610.88C-53.966 1610.94 -53.7363 1611 -53.5639 1611C-53.2193 1611 -52.8746 1610.88 -52.5874 1610.6L-4.16294 1566.07L-4.16294 1609.56C-4.16294 1610.14 -3.81829 1610.65 -3.3013 1610.88C-3.12897 1610.94 -2.8992 1611 -2.72687 1611C-2.38221 1611 -2.03756 1610.88 -1.75034 1610.6L46.6741 1566.07L46.6741 1609.56C46.6741 1610.14 47.0188 1610.65 47.5358 1610.88C47.7081 1610.94 47.9379 1611 48.1102 1611C48.4548 1611 48.7995 1610.88 49.0867 1610.6L97.5112 1566.07L97.5112 1609.56C97.5112 1610.14 97.8558 1610.65 98.3728 1610.88C98.5451 1610.94 98.7749 1611 98.9472 1611C99.2919 1611 99.6366 1610.88 99.9238 1610.6L201.54 1517.05C201.828 1516.76 202 1516.41 202 1516.01C202 1515.61 201.828 1515.15 201.483 1514.92ZM49.5463 1425.68L97.5112 1469.81L97.5112 1512.67L49.5463 1468.54L49.5463 1425.68ZM100.326 1472.46L147.601 1515.95L100.326 1559.45L100.326 1472.46ZM49.5463 1472.46L96.8219 1515.95L49.5463 1559.45L49.5463 1472.46ZM-1.29079 1425.68L46.6741 1469.81L46.6741 1512.67L-1.29079 1468.54L-1.29079 1425.68ZM45.9848 1515.95L-1.29079 1559.45L-1.29079 1472.46L45.9848 1515.95ZM-52.0704 1606.22L-52.0704 1425.68L-4.1055 1469.81L-4.1055 1562.1L-52.0704 1606.22ZM-1.29079 1606.22L-1.29079 1563.36L46.6741 1519.23L46.6741 1562.1L-1.29079 1606.22ZM49.5463 1606.22L49.5463 1563.36L97.5112 1519.23L97.5112 1562.1L49.5463 1606.22ZM100.326 1606.22L100.326 1563.36L150.703 1516.99C150.991 1516.7 151.163 1516.35 151.163 1515.95C151.163 1515.55 150.991 1515.15 150.703 1514.92L100.326 1468.54L100.326 1425.68L198.439 1515.95L100.326 1606.22Z" fill="black"/>
<rect x="929" y="151.531" width="180" height="27.105" fill="#FF5C00" stroke="#0E1E30" stroke-width="4"/>
<rect x="929" y="151.531" width="180" height="27.105" fill="#FF5C00" stroke="#0E1E30" stroke-width="4"/>
<rect x="1053.31" y="192.793" width="55.6905" height="27.105" fill="#FF5C00" stroke="#0E1E30" stroke-width="4"/>
<rect x="965.691" y="109" width="113.738" height="27.105" fill="#54F0B2" stroke="#0E1E30" stroke-width="4"/>
<path d="M1127 230H1021.46" stroke="#0E1E30" stroke-width="6"/>
<path d="M972.419 215.39L976.192 225.901C972.104 227.384 969.319 230.012 967.837 233.785C966.354 237.514 965.613 241.826 965.613 246.723L965.613 260.469C965.613 265.006 964.603 269.116 962.581 272.8C960.604 276.483 957.46 279.426 953.147 281.627C948.835 283.783 943.197 284.861 936.234 284.861L936.234 274.619C940.502 274.619 943.557 273.339 945.398 270.778C947.285 268.218 948.229 264.781 948.229 260.469L948.229 246.723C948.229 242.006 948.947 237.604 950.385 233.516C951.867 229.383 954.36 225.767 957.864 222.667C961.413 219.522 966.265 217.097 972.419 215.39ZM976.192 336.813L972.419 347.393C966.265 345.641 961.413 343.192 957.864 340.048C954.36 336.948 951.867 333.332 950.385 329.199C948.947 325.111 948.229 320.709 948.229 315.992L948.229 302.246C948.229 299.371 947.802 296.878 946.948 294.767C946.14 292.655 944.859 291.038 943.107 289.915C941.355 288.747 939.064 288.163 936.234 288.163L936.234 277.854C943.197 277.854 948.835 278.954 953.147 281.155C957.46 283.312 960.604 286.231 962.581 289.915C964.603 293.599 965.613 297.709 965.613 302.246L965.613 315.992C965.613 319.271 965.928 322.304 966.557 325.089C967.23 327.874 968.309 330.277 969.791 332.299C971.318 334.32 973.452 335.825 976.192 336.813ZM1015.21 225.901L1018.98 215.39C1025.18 217.097 1030.03 219.522 1033.54 222.667C1037.04 225.767 1039.51 229.383 1040.95 233.516C1042.43 237.604 1043.17 242.006 1043.17 246.723L1043.17 260.469C1043.17 263.344 1043.58 265.837 1044.38 267.948C1045.19 270.06 1046.47 271.699 1048.22 272.867C1050.02 274.035 1052.33 274.619 1055.17 274.619L1055.17 284.592C1048.2 284.592 1042.56 283.536 1038.25 281.425C1033.94 279.313 1030.77 276.438 1028.75 272.8C1026.73 269.116 1025.72 265.006 1025.72 260.469L1025.72 246.723C1025.72 243.443 1025.4 240.411 1024.78 237.626C1024.19 234.841 1023.14 232.437 1021.61 230.416C1020.08 228.395 1017.95 226.89 1015.21 225.901ZM1018.98 347.393L1015.21 336.813C1017.95 335.825 1020.08 334.32 1021.61 332.299C1023.14 330.277 1024.19 327.874 1024.78 325.089C1025.4 322.304 1025.72 319.271 1025.72 315.992L1025.72 302.246C1025.72 297.709 1026.73 293.621 1028.75 289.982C1030.77 286.344 1033.94 283.469 1038.25 281.357C1042.56 279.201 1048.2 278.123 1055.17 278.123L1055.17 288.163C1050.94 288.163 1047.89 289.443 1046 292.004C1044.11 294.564 1043.17 297.979 1043.17 302.246L1043.17 315.992C1043.17 320.709 1042.43 325.111 1040.95 329.199C1039.51 333.332 1037.04 336.948 1033.54 340.048C1030.03 343.192 1025.18 345.641 1018.98 347.393Z" fill="black"/>
<path d="M942.307 1734.98V1779.04H896.296V1819.85L921.894 1844L1011 1843.02V1757.5L983.782 1734.98H942.307Z" fill="#54F0B2" stroke="#0E1E30" stroke-width="4"/>
<path d="M969.525 1759.13V1803.2H923.514V1844H1011V1759.13H969.525Z" fill="#FF5C00" stroke="#0E1E30" stroke-width="4"/>
<path d="M970.821 1758.81L943.279 1735.31" stroke="#0E1E30" stroke-width="4"/>
<path d="M984.754 1758.81L957.212 1734.33" stroke="#0E1E30" stroke-width="4"/>
<path d="M999.659 1759.79L971.145 1734" stroke="#0E1E30" stroke-width="4"/>
<path d="M970.173 1772.19L941.659 1747.38" stroke="#0E1E30" stroke-width="4"/>
<path d="M923.514 1815.93L895 1791.12" stroke="#0E1E30" stroke-width="4"/>
<path d="M970.173 1787.2L941.659 1762.4" stroke="#0E1E30" stroke-width="4"/>
<path d="M923.514 1830.94L895 1806.14" stroke="#0E1E30" stroke-width="4"/>
<path d="M970.173 1802.22L941.659 1777.41" stroke="#0E1E30" stroke-width="4"/>
<path d="M955.916 1803.53L927.402 1778.72" stroke="#0E1E30" stroke-width="4"/>
<path d="M941.659 1803.53L913.145 1778.72" stroke="#0E1E30" stroke-width="4"/>
<path d="M925.458 1803.53L896.944 1778.72" stroke="#0E1E30" stroke-width="4"/>
</g>
<defs>
<clipPath id="clip0_234_1640">
<rect width="1080" height="1920" fill="white"/>
</clipPath>
</defs>
</svg>
